<?xml version="1.0" encoding="UTF-8" standalone="no"?>
<!-- Created with Inkscape (http://www.inkscape.org/) -->

<svg
   version="1.1"
   id="svg2"
   width="189.83569"
   height="279.60995"
   viewBox="0 0 189.83569 279.60995"
   sodipodi:docname="bulb1.jpg.svg"
   inkscape:version="1.1.2 (0a00cf5339, 2022-02-04)"
   xmlns:inkscape="http://www.inkscape.org/namespaces/inkscape"
   xmlns:sodipodi="http://sodipodi.sourceforge.net/DTD/sodipodi-0.dtd"
   xmlns="http://www.w3.org/2000/svg"
   xmlns:svg="http://www.w3.org/2000/svg">
  <defs
     id="defs6" />
  <sodipodi:namedview
     id="namedview4"
     pagecolor="#505050"
     bordercolor="#eeeeee"
     borderopacity="1"
     inkscape:pageshadow="0"
     inkscape:pageopacity="0"
     inkscape:pagecheckerboard="0"
     showgrid="false"
     fit-margin-top="0"
     fit-margin-left="0"
     fit-margin-right="0"
     fit-margin-bottom="0"
     inkscape:zoom="4.475"
     inkscape:cx="156.75978"
     inkscape:cy="111.28492"
     inkscape:window-width="3840"
     inkscape:window-height="2079"
     inkscape:window-x="2560"
     inkscape:window-y="45"
     inkscape:window-maximized="1"
     inkscape:current-layer="g8" />
  <g
     inkscape:groupmode="layer"
     inkscape:label="Image"
     id="g8"
     transform="translate(-65.079222,-20.214718)">
    <path
       style="fill:#000000;stroke-width:0.32"
       d="m 145.40178,299.20744 c -7.72033,-2.02416 -13.62397,-7.90618 -15.79368,-15.73585 -0.35646,-1.2863 -0.6503,-2.77362 -0.653,-3.30516 -0.003,-0.53154 -0.11069,-1.12923 -0.24,-1.32822 -0.14653,-0.22549 -1.80231,-0.41516 -4.3951,-0.50346 -3.54538,-0.12074 -4.3944,-0.25441 -5.7465,-0.90471 -2.10099,-1.01048 -3.88679,-2.84578 -4.92615,-5.06269 -0.84138,-1.79462 -0.84735,-1.86049 -0.84735,-9.34981 v -7.54246 l -1.19131,-0.84831 c -1.59392,-1.135 -3.02982,-3.17731 -3.61185,-5.13722 -0.6505,-2.19048 -0.68071,-14.79043 -0.0406,-16.9175 0.57121,-1.89796 2.21595,-4.25905 3.58408,-5.14505 l 1.09172,-0.707 0.003,-3.2 c 0.008,-9.51621 -3.66244,-19.71099 -10.15402,-28.20352 C 101.42278,193.93241 97.979824,190.208 94.829725,187.04 85.592714,177.75049 80.381891,170.69231 75.339475,160.64 64.29095,138.61421 62.06137,112.65344 69.156509,88.646858 78.928778,55.582128 106.88825,29.373688 140,22.240118 c 6.66855,-1.436667 10.03915,-1.809745 17.92,-1.983491 8.46155,-0.186548 13.65516,0.228993 20.80468,1.66458 14.27526,2.866403 27.95173,9.290659 39.83532,18.711859 6.68472,5.299587 14.91144,14.242601 19.77877,21.500905 13.78928,20.56297 19.36097,46.336739 15.25567,70.570439 -2.65713,15.68505 -8.60044,29.85189 -17.66804,42.11459 -3.52363,4.76523 -5.61853,7.11444 -11.75417,13.181 -5.70171,5.63752 -8.43151,8.97268 -10.81911,13.21836 -3.82376,6.79948 -5.63627,13.05943 -5.90131,20.38164 l -0.17375,4.8 1.61677,1.35864 c 1.02721,0.86321 1.94649,2.0301 2.52097,3.2 l 0.9042,1.84136 0.10006,7.69439 c 0.0932,7.16765 0.0541,7.81711 -0.57067,9.48707 -0.70034,1.87183 -2.59093,4.29915 -3.89082,4.99543 L 207.2,255.38321 v 7.59592 7.59593 l -1.05444,2.14108 c -1.12836,2.29116 -2.50827,3.65325 -4.86556,4.80273 -1.20421,0.5872 -2.13304,0.72286 -5.67241,0.8285 l -4.23241,0.12632 -0.18026,1.16315 c -1.58582,10.23337 -7.55908,17.24195 -16.68389,19.57568 -2.23332,0.57119 -3.54683,0.6259 -14.64222,0.60986 -10.83531,-0.0156 -12.44179,-0.084 -14.46703,-0.61494 z m 29.07484,-10.34932 c 3.40286,-1.671 6.38384,-5.59524 6.85356,-9.02224 L 181.52699,278.4 h -21.52563 -21.52563 l 0.16879,1.2584 c 0.25384,1.89255 1.61177,4.59321 3.14696,6.25869 1.76695,1.91691 2.79699,2.63511 4.85424,3.38461 1.55211,0.56547 2.56155,0.60445 13.83428,0.53414 l 12.16,-0.0758 z m 23.02942,-26.0871 0.094,-5.70898 -17.44,-0.2107 c -9.592,-0.11588 -26.476,-0.21084 -37.52,-0.21102 L 122.56,256.64 v 5.92 5.92 h 37.42604 37.42604 z M 181.04,246.74964 202.88,246.72 v -5.76 -5.76 H 160 117.12 v 5.75724 5.75725 l 17.36,0.0827 c 9.548,0.0455 19.016,0.0601 21.04,0.0324 2.024,-0.0277 13.508,-0.0637 25.52,-0.08 z m -39.67835,-51.26909 c 0.0647,-23.47976 -0.002,-29.70202 -0.32,-29.94054 -0.22091,-0.1656 -1.40965,-0.71092 -2.64165,-1.21183 -2.9239,-1.1888 -8.17748,-3.8266 -10.4,-5.22181 -7.41896,-4.65731 -11.52907,-12.00921 -11.12118,-19.89283 0.25292,-4.88836 1.89805,-8.15887 5.40133,-10.73784 4.64497,-3.41943 10.78946,-4.2346 15.47985,-2.05365 2.47007,1.14854 5.56317,4.44255 7.13889,7.6026 2.71118,5.43719 3.57796,10.1521 3.57982,19.47266 l 0.001,6.45731 1.68,0.34817 c 6.08086,1.26019 13.3307,1.25555 19.68,-0.0126 l 1.68,-0.33555 0.002,-6.29731 c 0.002,-7.28502 0.49021,-11.20408 1.93196,-15.51443 1.99496,-5.9643 4.79309,-9.64059 8.87214,-11.65657 2.26256,-1.11821 2.62401,-1.19978 5.33058,-1.20293 6.73553,-0.008 12.38364,3.50391 14.66262,9.11661 0.61529,1.51533 0.71315,2.33832 0.70396,5.92 -0.01,3.86011 -0.0819,4.34704 -0.99793,6.75443 -1.72634,4.53673 -4.48153,8.15481 -8.26992,10.85993 -2.30972,1.64929 -8.29555,4.81352 -11.83529,6.25638 -1.408,0.57393 -2.704,1.14991 -2.88,1.27996 -0.17629,0.13027 -0.31091,1.57772 -0.29976,3.22289 0.0111,1.64253 0.0471,15.04641 0.08,29.78641 l 0.0597,26.8 h 9.22852 9.22851 l 0.37523,-4.85818 c 1.18811,-15.38259 7.37604,-27.94 19.21234,-38.98832 14.68772,-13.70993 23.80313,-30.72282 27.25772,-50.8735 0.98341,-5.73622 1.21844,-17.62203 0.47141,-23.84 C 243.36049,95.955485 240.39794,86.189286 235.52905,76.64 224.13798,54.298877 203.27854,37.781309 179.36,32.162499 c -7.13285,-1.675607 -9.64184,-1.922571 -19.52,-1.92138 -10.01373,0.0012 -12.69862,0.29764 -20.46469,2.25947 C 108.74948,40.237133 83.92849,65.933926 76.958272,97.12 c -2.699968,12.08016 -2.810515,26.05493 -0.30016,37.94459 2.857603,13.53433 8.769859,26.0028 17.422522,36.74271 1.474361,1.83002 5.219568,5.86245 8.322686,8.96097 3.21291,3.20815 6.69069,7.04274 8.07774,8.90649 7.2226,9.70486 11.07154,20.18155 11.93624,32.49001 l 0.21952,3.12478 9.32159,-0.0848 L 141.28,225.12 Z M 171.52,196.48 c 0,-22.82808 -0.0829,-28.79945 -0.4,-28.79734 -0.22,0.002 -1.984,0.21465 -3.92,0.47375 -5.3757,0.71945 -9.76484,0.6331 -17.04,-0.33525 l -1.68,-0.22361 V 196.43877 225.28 H 160 171.52 Z m -30.09989,-42.64 c -0.0709,-5.0832 -0.51014,-9.26065 -1.26199,-12.00117 -1.73354,-6.3188 -4.89284,-9.70205 -8.64489,-9.25768 -5.4531,0.64584 -8.28917,4.33702 -7.34279,9.55672 0.57773,3.18646 1.73328,5.25882 4.4431,7.96821 2.14128,2.14095 2.99061,2.71298 7.22646,4.86708 2.64,1.34254 4.98682,2.4468 5.21515,2.45391 0.31922,0.01 0.40354,-0.81881 0.36496,-3.58707 z m 42.18416,1.39706 c 4.9328,-2.47208 7.24703,-4.07877 9.12762,-6.33699 3.07201,-3.68887 4.23079,-9.16082 2.60553,-12.30374 -1.08371,-2.09567 -4.7676,-4.11633 -7.50451,-4.11633 -1.54056,0 -3.66514,1.13607 -4.7969,2.56504 -2.86614,3.6188 -4.14567,8.81943 -4.15181,16.87496 -0.002,3.036 0.0697,5.52 0.16007,5.52 0.0903,0 2.14234,-0.99132 4.56,-2.20294 z"
       id="path827"
       sodipodi:nodetypes="cscssssscsssscccssssssssssssscsscssscccssscssscsscccsssscsccssccccccccccccccssscscssssssccssccsscsccssssccccssscsssssssssscccsscsscccccscsssssccssssscss" />
  </g>
</svg>
